<svg width="200" height="200" viewBox="0 0 200 200" fill="none" xmlns="http://www.w3.org/2000/svg">
<g clip-path="url(#clip0_2_80)">
<path d="M100 200C86 200 72.9167 197.375 60.75 192.125C48.5833 186.875 38 179.75 29 170.75C20 161.75 12.9167 151.125 7.75 138.875C2.58333 126.625 0 113.5 0 99.5C0 85.5 2.58333 72.4583 7.75 60.375C12.9167 48.2917 20 37.75 29 28.75C38 19.75 48.5833 12.7083 60.75 7.625C72.9167 2.54167 86 0 100 0C114 0 127.083 2.54167 139.25 7.625C151.417 12.7083 162 19.75 171 28.75C180 37.75 187.083 48.2917 192.25 60.375C197.417 72.4583 200 85.5 200 99.5C200 113.5 197.417 126.625 192.25 138.875C187.083 151.125 180 161.75 171 170.75C162 179.75 151.417 186.875 139.25 192.125C127.083 197.375 114 200 100 200ZM139.5 62.5H177C171.5 51 163.958 41.4167 154.375 33.75C144.792 26.0833 133.75 20.6667 121.25 17.5C125.417 23.6667 128.958 30.3333 131.875 37.5C134.792 44.6667 137.333 53 139.5 62.5ZM76 62.5H124.5C122.667 53.6667 119.583 45.125 115.25 36.875C110.917 28.625 105.833 21.3333 100 15C94.6667 19.5 90.1667 25.4167 86.5 32.75C82.8333 40.0833 79.3333 50 76 62.5ZM18 122.25H57.75C57.25 117.75 56.9583 113.708 56.875 110.125C56.7917 106.542 56.75 103 56.75 99.5C56.75 95.3333 56.8333 91.625 57 88.375C57.1667 85.125 57.5 81.5 58 77.5H18C16.8333 81.5 16.0417 85.0833 15.625 88.25C15.2083 91.4167 15 95.1667 15 99.5C15 103.833 15.2083 107.708 15.625 111.125C16.0417 114.542 16.8333 118.25 18 122.25ZM78.75 182.5C74.5833 176.167 71 169.333 68 162C65 154.667 62.5 146.417 60.5 137.25H23C29.3333 149.083 36.6667 158.375 45 165.125C53.3333 171.875 64.5833 177.667 78.75 182.5ZM23 62.5H60.75C62.5833 53.5 64.9167 45.4583 67.75 38.375C70.5833 31.2917 74.1667 24.4167 78.5 17.75C66 20.9167 55.0833 26.25 45.75 33.75C36.4167 41.25 28.8333 50.8333 23 62.5ZM100 185.5C105.833 179.5 110.708 172.625 114.625 164.875C118.542 157.125 121.75 147.917 124.25 137.25H76C78.3333 147.25 81.4583 156.25 85.375 164.25C89.2917 172.25 94.1667 179.333 100 185.5ZM73.25 122.25H127C127.667 117.083 128.083 112.875 128.25 109.625C128.417 106.375 128.5 103 128.5 99.5C128.5 96.1667 128.417 92.9583 128.25 89.875C128.083 86.7917 127.667 82.6667 127 77.5H73.25C72.5833 82.6667 72.1667 86.7917 72 89.875C71.8333 92.9583 71.75 96.1667 71.75 99.5C71.75 103 71.8333 106.375 72 109.625C72.1667 112.875 72.5833 117.083 73.25 122.25ZM121.5 182.25C133.5 178.417 144.292 172.667 153.875 165C163.458 157.333 171.167 148.083 177 137.25H139.75C137.583 146.25 135.042 154.417 132.125 161.75C129.208 169.083 125.667 175.917 121.5 182.25ZM142 122.25H182C183.167 118.25 183.958 114.542 184.375 111.125C184.792 107.708 185 103.833 185 99.5C185 95.1667 184.792 91.4167 184.375 88.25C183.958 85.0833 183.167 81.5 182 77.5H142.25C142.75 83.3333 143.083 87.7917 143.25 90.875C143.417 93.9583 143.5 96.8333 143.5 99.5C143.5 103.167 143.375 106.625 143.125 109.875C142.875 113.125 142.5 117.25 142 122.25Z" fill="black"/>
</g>
<defs>
<clipPath id="clip0_2_80">
<rect width="200" height="200" fill="white"/>
</clipPath>
</defs>
</svg>
