<svg width="200" height="200" viewBox="0 0 200 200" fill="none" xmlns="http://www.w3.org/2000/svg">
<path d="M100 0C44.7768 0 0 44.7768 0 100C0 155.223 44.7768 200 100 200C155.223 200 200 155.223 200 100C200 44.7768 155.223 0 100 0ZM148.058 75.3795C148.125 76.4286 148.125 77.5223 148.125 78.5938C148.125 111.362 123.17 149.107 77.567 149.107C63.5045 149.107 50.4687 145.022 39.4866 137.991C41.4955 138.214 43.4152 138.304 45.4688 138.304C57.0759 138.304 67.7455 134.375 76.25 127.723C65.3571 127.5 56.2054 120.357 53.0804 110.536C56.8973 111.094 60.3348 111.094 64.2634 110.089C58.6546 108.95 53.6133 105.904 49.9959 101.468C46.3785 97.0331 44.4082 91.4823 44.4196 85.7589V85.4464C47.7009 87.2991 51.5625 88.4375 55.6027 88.5937C52.2063 86.3302 49.4209 83.2636 47.4936 79.6658C45.5662 76.0681 44.5563 72.0503 44.5536 67.9687C44.5536 63.3482 45.7589 59.1295 47.9241 55.4687C54.1496 63.1325 61.9181 69.4005 70.7247 73.8653C79.5312 78.3301 89.1787 80.8918 99.0402 81.3839C95.5357 64.5313 108.125 50.8929 123.259 50.8929C130.402 50.8929 136.83 53.8839 141.362 58.7054C146.964 57.6562 152.321 55.558 157.098 52.7455C155.246 58.4821 151.362 63.3259 146.205 66.3839C151.205 65.8482 156.027 64.4643 160.491 62.5223C157.121 67.4777 152.902 71.875 148.058 75.3795V75.3795Z" fill="black"/>
</svg>
