<svg width="200" height="200" viewBox="0 0 200 200" fill="none" xmlns="http://www.w3.org/2000/svg">
<path d="M100 0C44.78 0 0 44.78 0 100C0 155.22 44.78 200 100 200C155.22 200 200 155.22 200 100C200 44.78 155.24 0 100 0ZM49.34 103.36L49.76 102.68L75.78 61.98C76.16 61.4 77.06 61.46 77.34 62.1C81.68 71.84 85.44 83.96 83.68 91.5C82.94 94.6 80.88 98.8 78.56 102.68C78.26 103.24 77.94 103.8 77.58 104.34C77.42 104.58 77.14 104.72 76.84 104.72H50.1C49.38 104.72 48.96 103.94 49.34 103.36ZM165.28 117.36C165.28 117.74 165.06 118.06 164.74 118.2C162.72 119.06 155.82 122.24 152.96 126.22C145.64 136.4 140.06 150.96 127.56 150.96H75.44C56.96 150.96 42 135.94 42 117.4V116.8C42 116.32 42.4 115.92 42.9 115.92H71.94C72.52 115.92 72.94 116.44 72.9 117.02C72.68 118.9 73.04 120.84 73.94 122.6C75.66 126.1 79.24 128.28 83.1 128.28H97.48V117.06H83.26C82.54 117.06 82.1 116.22 82.52 115.62C82.68 115.38 82.84 115.14 83.04 114.86C84.38 112.94 86.3 109.98 88.22 106.6C89.52 104.32 90.78 101.88 91.8 99.44C92 99 92.16 98.54 92.34 98.1C92.62 97.32 92.9 96.58 93.1 95.86C93.3 95.24 93.48 94.6 93.64 94C94.12 91.92 94.32 89.72 94.32 87.44C94.32 86.54 94.28 85.6 94.2 84.72C94.16 83.74 94.04 82.76 93.92 81.78C93.84 80.92 93.68 80.06 93.52 79.18C93.3 77.88 93.02 76.58 92.7 75.28L92.58 74.78C92.34 73.88 92.12 73.04 91.84 72.14C91.02 69.34 90.1 66.6 89.1 64.04C88.74 63.02 88.34 62.04 87.92 61.08C87.32 59.6 86.7 58.26 86.14 57C85.84 56.42 85.6 55.9 85.36 55.36C85.08 54.76 84.8 54.16 84.5 53.58C84.3 53.14 84.06 52.72 83.9 52.32L82.14 49.08C81.9 48.64 82.3 48.1 82.78 48.24L93.78 51.22H93.82C93.84 51.22 93.84 51.22 93.86 51.22L95.3 51.64L96.9 52.08L97.48 52.24V45.72C97.48 42.56 100 40 103.14 40C104.7 40 106.12 40.64 107.12 41.68C108.14 42.72 108.78 44.14 108.78 45.72V55.42L109.96 55.74C110.04 55.78 110.14 55.82 110.22 55.88C110.5 56.08 110.92 56.4 111.44 56.8C111.86 57.12 112.3 57.52 112.82 57.94C113.88 58.8 115.16 59.9 116.54 61.16C116.9 61.48 117.26 61.8 117.6 62.14C119.38 63.8 121.38 65.74 123.3 67.9C123.84 68.52 124.36 69.12 124.9 69.78C125.42 70.44 126 71.08 126.48 71.72C127.14 72.58 127.82 73.48 128.44 74.42C128.72 74.86 129.06 75.32 129.32 75.76C130.12 76.94 130.8 78.16 131.46 79.38C131.74 79.94 132.02 80.56 132.26 81.16C133 82.8 133.58 84.46 133.94 86.14C134.06 86.5 134.14 86.88 134.18 87.24V87.32C134.3 87.8 134.34 88.32 134.38 88.86C134.54 90.56 134.46 92.28 134.1 94C133.94 94.72 133.74 95.4 133.5 96.14C133.24 96.84 133 97.56 132.68 98.26C132.06 99.68 131.34 101.12 130.48 102.44C130.2 102.94 129.86 103.46 129.54 103.96C129.18 104.48 128.8 104.98 128.48 105.46C128.02 106.08 127.54 106.72 127.04 107.3C126.6 107.9 126.16 108.5 125.66 109.04C124.98 109.86 124.32 110.62 123.62 111.36C123.22 111.84 122.78 112.34 122.32 112.78C121.88 113.28 121.42 113.72 121.02 114.12C120.32 114.82 119.76 115.34 119.28 115.8L118.14 116.82C117.98 116.98 117.76 117.06 117.54 117.06H108.78V128.28H119.8C122.26 128.28 124.6 127.42 126.5 125.8C127.14 125.24 129.96 122.8 133.3 119.12C133.42 118.98 133.56 118.9 133.72 118.86L164.14 110.06C164.72 109.9 165.28 110.32 165.28 110.92V117.36Z" fill="black"/>
</svg>
