<svg width="200" height="200" viewBox="0 0 200 200" fill="none" xmlns="http://www.w3.org/2000/svg">
<g clip-path="url(#clip0_2_62)">
<path d="M41.5659 95.2235C41.5657 94.1066 41.7861 93.0006 42.2145 91.9692C42.6428 90.9377 43.2707 90.0011 44.0619 89.2131C44.8532 88.4251 45.7923 87.8013 46.8253 87.3774C47.8583 86.9536 48.9648 86.738 50.0813 86.7432L64.1989 86.7896C66.4499 86.7896 68.6087 87.6841 70.2004 89.2763C71.7921 90.8686 72.6863 93.0282 72.6863 95.28V148.683C74.2767 148.211 76.3163 147.709 78.5507 147.184C80.1021 146.819 81.4847 145.94 82.4744 144.691C83.464 143.441 84.0028 141.893 84.0032 140.299V74.0576C84.0031 72.9425 84.2226 71.8382 84.6491 70.8079C85.0756 69.7776 85.7008 68.8414 86.489 68.0528C87.2772 67.2642 88.2129 66.6386 89.2428 66.2118C90.2727 65.7849 91.3765 65.5652 92.4913 65.5651H106.637C108.888 65.5655 111.046 66.4601 112.638 68.0523C114.23 69.6445 115.124 71.8039 115.124 74.0556V135.539C115.124 135.539 118.664 134.104 122.115 132.648C123.397 132.105 124.49 131.198 125.259 130.038C126.028 128.878 126.439 127.517 126.44 126.125V52.8277C126.44 51.7128 126.66 50.6087 127.086 49.5786C127.513 48.5485 128.138 47.6125 128.926 46.8241C129.714 46.0357 130.65 45.4103 131.679 44.9836C132.709 44.5569 133.813 44.3373 134.927 44.3373H149.073C151.324 44.3373 153.483 45.2318 155.074 46.824C156.666 48.4163 157.561 50.5759 157.561 52.8277V113.184C169.825 104.293 182.254 93.5992 192.117 80.7406C193.548 78.8741 194.495 76.6822 194.874 74.3606C195.252 72.039 195.05 69.6598 194.286 67.4352C187.612 47.9789 175.094 31.0596 158.442 18.9906C141.791 6.92162 121.82 0.292188 101.259 0.00876065C45.8161 -0.736291 -0.00466143 44.5382 0.000784915 100.008C-0.0536534 117.56 4.52585 134.816 13.2762 150.03C14.483 152.111 16.2583 153.804 18.3937 154.91C20.529 156.017 22.9357 156.491 25.3311 156.277C28.0073 156.041 31.3391 155.708 35.2999 155.243C37.0239 155.047 38.6155 154.223 39.7716 152.929C40.9277 151.634 41.5676 149.96 41.5693 148.224V95.2235" fill="black"/>
<path d="M41.2581 180.869C56.1688 191.72 73.7895 198.233 92.1709 199.688C110.552 201.143 128.978 197.483 145.409 189.113C161.84 180.742 175.636 167.988 185.27 152.261C194.905 136.534 200.003 118.448 200 100.002C200 97.6998 199.893 95.4231 199.739 93.1587C163.22 147.641 95.7917 173.112 41.2574 180.871" fill="black"/>
</g>
<defs>
<clipPath id="clip0_2_62">
<rect width="200" height="200" fill="white"/>
</clipPath>
</defs>
</svg>
