<svg width="200" height="200" viewBox="0 0 200 200" fill="none" xmlns="http://www.w3.org/2000/svg">
<path fill-rule="evenodd" clip-rule="evenodd" d="M200 100C200 155.228 155.228 200 100 200C44.7715 200 0 155.228 0 100C0 44.7715 44.7715 0 100 0C155.228 0 200 44.7715 200 100ZM37.5 128.645C37.5 147.314 52.6875 162.5 71.3547 162.5H128.645C147.314 162.5 162.5 147.314 162.5 128.647V71.3547C162.5 52.6859 147.314 37.5 128.645 37.5H71.3547C52.6875 37.5 37.5 52.6859 37.5 71.3547V128.645ZM47.9172 71.3547C47.9172 58.4312 58.4312 47.9172 71.3547 47.9172H128.645C141.569 47.9172 152.083 58.4312 152.083 71.3547V128.647C152.083 141.57 141.569 152.084 128.645 152.084H71.3547C58.4312 152.084 47.9172 141.57 47.9172 128.647V71.3547ZM100 131.25C82.7687 131.25 68.75 117.23 68.75 100C68.75 82.7672 82.7687 68.75 100 68.75C117.231 68.75 131.25 82.7672 131.25 100C131.25 117.23 117.231 131.25 100 131.25ZM100 79.1672C88.5125 79.1672 79.1672 88.5125 79.1672 100C79.1672 111.489 88.5125 120.833 100 120.833C111.488 120.833 120.833 111.489 120.833 100C120.833 88.5125 111.489 79.1672 100 79.1672ZM140.364 66.7969C140.364 70.7518 137.158 73.9578 133.203 73.9578C129.248 73.9578 126.042 70.7518 126.042 66.7969C126.042 62.842 129.248 59.6359 133.203 59.6359C137.158 59.6359 140.364 62.842 140.364 66.7969Z" fill="black"/>
</svg>
