<svg width="200" height="200" viewBox="0 0 200 200" fill="none" xmlns="http://www.w3.org/2000/svg">
<path fill-rule="evenodd" clip-rule="evenodd" d="M200 100C200 155.228 155.228 200 100 200C44.7715 200 0 155.228 0 100C0 44.7715 44.7715 0 100 0C155.228 0 200 44.7715 200 100ZM81.9922 143.594C86.7188 138.984 91.4453 134.375 96.25 129.727C96.7578 130.078 97.1875 130.391 97.6172 130.742C106.484 137.305 115.352 143.867 124.219 150.391C129.492 154.297 134.023 152.617 135.391 146.172C140.311 123.1 145.203 99.9997 150.091 76.9193C150.946 72.8804 151.801 68.8421 152.656 64.8047C152.839 63.9104 153.035 63.0161 153.232 62.1211C153.79 59.576 154.349 57.0252 154.609 54.4531C155.156 48.9844 151.289 46.25 146.25 48.2031C133.028 53.3006 119.806 58.4078 106.584 63.5151C93.3604 68.6227 80.1372 73.7303 66.9141 78.8281C64.5355 79.7457 62.157 80.6612 59.7789 81.5766C51.7293 84.675 43.6851 87.7713 35.6641 90.9375C33.8672 91.6406 32.1484 92.7344 30.7031 94.0234C29.1406 95.4297 29.375 97.3438 31.1328 98.5156C32.2656 99.2969 33.5938 99.8047 34.8828 100.234C43.3203 102.93 51.8359 105.586 60.3125 108.164C61.4062 108.516 61.9141 109.023 62.2656 110.117C64.1974 116.144 66.1519 122.159 68.1046 128.169C69.7845 133.339 71.4631 138.505 73.125 143.672C73.6328 145.195 74.5312 145.898 76.1328 145.977C78.5156 146.094 80.3516 145.195 81.9922 143.594ZM76.4844 137.93C76.4355 137.939 76.3867 137.949 76.3281 137.969C75.4102 135.156 74.4922 132.334 73.5742 129.512C72.6562 126.689 71.7383 123.867 70.8203 121.055C70.5633 120.254 70.3076 119.454 70.0521 118.654C68.9482 115.197 67.8459 111.746 66.6406 108.32C66.2109 107.07 66.4062 106.484 67.5391 105.781C77.4814 99.5111 87.4336 93.241 97.3857 86.9708C107.336 80.7019 117.286 74.433 127.227 68.1641L127.326 68.102C128.233 67.5345 129.178 66.9435 130.195 66.6797C130.714 66.5501 131.284 66.6612 131.859 66.7735C132.152 66.8305 132.445 66.8878 132.734 66.9141C132.607 67.1425 132.497 67.3875 132.387 67.6315C132.158 68.1385 131.932 68.6416 131.562 68.9844C122.578 77.1484 113.555 85.2734 104.531 93.3984L103.413 94.4091C95.6574 101.419 87.8678 108.46 80.0781 115.43C79.0625 116.367 78.5938 117.344 78.4766 118.711C77.9688 124.844 77.3828 131.016 76.7969 137.148C76.7794 137.253 76.7542 137.358 76.7282 137.466C76.6959 137.6 76.6623 137.739 76.6406 137.891C76.582 137.91 76.5332 137.92 76.4844 137.93Z" fill="black"/>
</svg>
