<svg width="200" height="200" viewBox="0 0 200 200" fill="none" xmlns="http://www.w3.org/2000/svg">
<path fill-rule="evenodd" clip-rule="evenodd" d="M200 100C200 155.228 155.228 200 100 200C44.7715 200 0 155.228 0 100C0 44.7715 44.7715 0 100 0C155.228 0 200 44.7715 200 100ZM117.07 54.5313C132.461 55.7031 145.469 65.8984 145.469 65.8984C145.469 65.8984 160 86.9922 162.578 128.398C147.93 145.312 125.664 145.43 125.664 145.43L121.016 139.219C128.906 136.484 137.852 131.562 145.547 122.695C136.328 129.688 122.461 136.914 100.078 136.914C77.6953 136.914 63.7891 129.648 54.6094 122.695C62.3047 131.562 71.25 136.484 79.1406 139.219L74.4922 145.43C74.4922 145.43 52.2266 145.312 37.5781 128.398C40.0781 86.9922 54.6094 65.8984 54.6094 65.8984C54.6094 65.8984 66.875 56.0547 83.0078 54.5313L84.375 57.3047C71.6797 60.1562 64.1016 65.5859 57.4219 71.5625C68.9062 65.7031 80.2734 60.1953 100.039 60.1953C119.805 60.1953 131.172 65.7031 142.656 71.5625C135.977 65.5859 129.609 60.7031 115.703 57.3047L117.07 54.5313ZM71.5625 105.664C71.5625 111.953 76.0156 117.031 81.5234 117.031C87.0312 117.031 91.4844 111.953 91.4844 105.664C91.4844 99.375 87.0312 94.2969 81.5234 94.2969C76.0156 94.2969 71.5625 99.375 71.5625 105.664ZM108.516 105.664C108.516 111.953 112.969 117.031 118.477 117.031C123.945 117.031 128.438 111.953 128.438 105.664C128.438 99.375 123.984 94.2969 118.477 94.2969C112.969 94.2969 108.516 99.375 108.516 105.664Z" fill="black"/>
</svg>
